<svg xmlns:svg="http://www.w3.org/2000/svg" xmlns="http://www.w3.org/2000/svg" version="1" id="svg2" x="0" y="0" width="512" height="512" viewBox="0" enable-background="new 0 0 512 512" xml:space="preserve"><path fill="#205081" d="M462 100v312c0 28-22 50-50 50H100c-28 0-50-22-50-50V100c0-28 22-50 50-50h312C440 50 462 72 462 100zM148 321l10 65c11 41 183 42 194 1l13-67C264 364 174 330 148 321L148 321zM118 141l25 151C242 336 328 313 371 291l30-153c0-59-283-58-283 3V141zM257 296c-27 0-49-21-49-47 0-26 22-47 49-47s49 21 49 47C306 274 284 296 257 296zM257 226c-13 0-24 10-24 22 0 12 11 22 24 22 13 0 24-10 24-22C281 236 270 226 257 226zM373 137c0 13-50 24-113 24 -62 0-113-11-113-24s50-24 113-24C323 113 373 124 373 137z"/></svg>