<svg xmlns:svg="http://www.w3.org/2000/svg" xmlns="http://www.w3.org/2000/svg" version="1.1" width="512" height="512" viewBox="0" xml:space="preserve"><path d="m163.979 317.334c0 0.984-1.125 1.781-2.512 1.781-1.387 0-2.511-0.797-2.511-1.781 0-0.983 1.124-1.781 2.511-1.781 1.387 0 2.512 0.798 2.512 1.781zm-7.578-7.037c-1.248 0-2.26 0.719-2.26 1.604 0 0.885 1.012 1.603 2.26 1.603 1.247 0 2.259-0.718 2.259-1.603 0-0.885-1.012-1.604-2.259-1.604zm10.934 10.557c-1.541 0-2.791 0.888-2.791 1.98 0 1.094 1.25 1.979 2.791 1.979 1.539 0 2.789-0.885 2.789-1.979 0-1.093-1.25-1.98-2.789-1.98zm-15.534-15.057c-1.067 0-1.933 0.613-1.933 1.371 0 0.757 0.865 1.369 1.933 1.369 1.066 0 1.933-0.612 1.933-1.369-0.001-0.758-0.867-1.371-1.933-1.371zm-4.734-3.733c-0.91 0-1.648 0.524-1.648 1.17 0 0.645 0.738 1.168 1.648 1.168 0.909 0 1.647-0.523 1.647-1.168 0.001-0.645-0.737-1.17-1.647-1.17zm-4.666-2.949c-0.819 0-1.483 0.471-1.483 1.053 0 0.58 0.664 1.051 1.483 1.051 0.818 0 1.482-0.471 1.482-1.051 0.001-0.582-0.663-1.053-1.482-1.053zm32.868 26.717c-1.713 0-3.101 0.986-3.101 2.201 0 1.215 1.388 2.199 3.101 2.199 1.711 0 3.1-0.984 3.1-2.199 0-1.215-1.39-2.201-3.1-2.201zm30.431 3.434c-1.711 0-3.1 0.986-3.1 2.201 0 1.215 1.389 2.199 3.1 2.199 1.713 0 3.101-0.984 3.101-2.199 0-1.215-1.388-2.201-3.101-2.201zM462 100v312c0 27.614-22.386 50-50 50H100C72.386 462 50 439.614 50 412V100C50 72.386 72.386 50 100 50h312c27.614 0 50 22.386 50 50zm-41.199 150.66c-18.316-1.777-36.534-1.936-54.231-0.584 2.845-9.078 4.344-19.332 4.235-30.992-0.233-24.771-8.493-44.064-21.474-60.076 2.492-15.082 0.614-30.162-4.09-45.249-18.549 1.519-35.242 7.594-50.107 18.148-27.779-5.635-55.557-5.995-83.337 0-17.339-11.702-34.364-17.441-51.128-18.148-4.969 16.612-5.734 32.987-1.533 49.086-14.624 15.518-20.214 34.355-19.939 55.215 0.156 11.941 1.996 22.567 5.391 31.961-17.438-1.279-35.361-1.108-53.387 0.639l0.295 3.055c18.357-1.782 36.607-1.929 54.336-0.542 0.65 1.579 1.306 3.151 2.053 4.653-19.208-0.507-36.494 1.162-52.684 5.143l0.73 2.979c16.432-4.038 34.033-5.664 53.686-5.003 12.997 23.091 38.017 36.659 74.451 40.964-8.465 6.875-13.016 14.985-14.188 24.161 0 0-3.83 0-19.297 0-25.915 0-32.98-33.043-59.822-29.784 26.04 12.914 20.84 54.193 62.51 54.193 14.004 0 16.98 0 17.506 0v37.837c0.186 6.114-2.476 10.203-6.775 13.038 14.924 1.506 26.139-5.944 26.139-15.084 0-9.141 0-45.559 0-50.014 0-4.456 4.666-4.801 4.666-4.801v58.395c0.197 5.811-2.627 9.113-5.625 12.271 13.147 0.523 25.514-2.103 26.074-13.292 0 0 0-53.076 0-55.887 0-2.81 4.604-2.879 4.604 0 0 2.879 0 53.265 0 53.265 0.136 9.44 8.289 17.094 25.562 15.914-4.621-3.72-6.039-7.479-6.039-12.921 0-5.439 0-57.744 0-57.744 0 0 4.761-0.244 4.761 4.801 0 5.044 0 40.264 0 48.704 0 10.84 13.013 15.312 27.863 14.892-4.865-3.646-8.158-7.992-8.179-13.805v-58.572c-0.503-8.609-4.003-16.726-10.866-24.287 33.305-5.113 57.311-18.408 69.264-42.236 19.717-0.678 37.371 0.945 53.845 4.996l0.731-2.979c-16.314-4.01-33.744-5.676-53.133-5.131 0.671-1.513 1.336-3.032 1.91-4.629 17.912-1.438 36.366-1.297 54.928 0.506l0.294-3.056zm-235.7 78.072c-1.711 0-3.1 0.986-3.1 2.201 0 1.214 1.389 2.199 3.1 2.199 1.713 0 3.1-0.985 3.1-2.199-0.001-1.214-1.388-2.201-3.1-2.201zm10.367 0.334c-1.713 0-3.1 0.986-3.1 2.201 0 1.213 1.387 2.199 3.1 2.199 1.711 0 3.1-0.986 3.1-2.199-0.001-1.214-1.389-2.201-3.1-2.201z"/></svg>