<svg xmlns:svg="http://www.w3.org/2000/svg" xmlns="http://www.w3.org/2000/svg" version="1.1" width="512" height="512" viewBox="0" id="svg2" xml:space="preserve"><metadata id="metadata9"/><defs id="defs7"/><path d="m209.04 235.67c-22.34-0.67-43.57-21.16-47.42-50.5-3.86-29.34 11.12-51.79 33.46-51.12 22.33 0.67 41.44 24.74 45.29 54.07 3.85 29.34-9 48.22-31.33 47.55zm-4.58 60.03c-33.28-0.37-61.48 21.03-61.48 45.83 0 25.31 24.03 46.38 57.31 46.38 42.55 0 63.1-19.77 63.1-45.08 0-24.13-22.01-47.12-58.93-47.12zM461.95 101v312c0 27.61-22.39 50-50 50h-312c-27.61 0-50-22.39-50-50V101c0-27.61 22.39-50 50-50h312c27.62 0 50 22.39 50 50zM292.05 339.88c0-23.36-8.72-38.63-35.12-58.41-26.77-19.52-33.31-30.55-7.76-50.31 14.4-11.13 24.49-25.97 24.49-44.29 0-19.96-8.16-38.07-23.51-46.86h21.76l18.52-19.44c0 0-69.82 0-82.88 0-51.74 0-77.1 31.01-77.1 65.12 0 34.86 23.92 62.32 70.61 62.32-7.24 14.62-4.33 28.12 7.51 37.77-79.76 0-96.83 35-96.83 61.96 0 34.93 40.15 55.7 88.3 55.7 65.83 0 92-34.89 92-63.55zM400.15 162.63H361.91v-38.23h-19.12v38.24h-38.23v19.12h38.24v38.24h19.12v-38.23h38.24v-19.12z" id="google-plus-square-rounded-icon" fill="#d0402e"/></svg>