<svg xmlns:svg="http://www.w3.org/2000/svg" xmlns="http://www.w3.org/2000/svg" version="1" width="512" height="512" viewBox="0" xml:space="preserve"><path d="m412 50h-312c-28 0-50 22-50 50v312c0 28 22 50 50 50h312c28 0 50-22 50-50V100c0-28-22-50-50-50zM181 393H124V210h57V393zM152 186c-18 0-33-15-33-34 0-19 15-34 33-34 18 0 33 15 33 34 0 19-15 34-33 34zM393 393h-56c0 0 0-70 0-96 0-26-10-41-31-41-23 0-34 15-34 41 0 28 0 96 0 96H217V210h54v25c0 0 16-30 55-30 39 0 66 24 66 73 0 49 0 116 0 116z" fill="#0375b3"/></svg>