<svg xmlns:svg="http://www.w3.org/2000/svg" xmlns="http://www.w3.org/2000/svg" version="1.1" width="512" height="512" viewBox="0" id="svg2" xml:space="preserve"><metadata id="metadata9"/><defs id="defs7"/><path d="m411.95 50h-312c-27.61 0-50 22.39-50 50v312c0 27.61 22.39 50 50 50h312c27.61 0 50-22.39 50-50V100c0-27.61-22.38-50-50-50zm-190.89 136.56 99.79 58.86-12.57 21.31-99.8-58.86 12.58-21.31zm-26.7 57.09 111.88 30.08-6.42 23.9-111.89-30.08 6.43-23.89zm-11.09 51.74 115.36 10.63-2.27 24.63-115.37-10.62 2.27-24.64zm112.56 42.36 0.02 24.75-115.86 0.05-0.01-24.74 115.85-0.06zm39.38 63.92H143.76v-120.57h19.79V382.25H315.52V281.09h19.69v120.57zm-10.34-159.64-65.28-95.72 20.45-13.94 65.28 95.72-20.44 13.94zm24.87-15.44-19.82-114.15 24.38-4.23 19.82 114.15-24.38 4.23z" id="stackoverflow-square-rounded-icon" fill="#808080"/></svg>