<svg xmlns:svg="http://www.w3.org/2000/svg" xmlns="http://www.w3.org/2000/svg" version="1.1" width="512" height="512" viewBox="0" id="svg2" xml:space="preserve"><metadata id="metadata9"/><defs id="defs7"/><path d="M412 50H100C72.4 50 50 72.4 50 100v312c0 27.6 22.4 50 50 50h312c27.6 0 50-22.4 50-50V100C462 72.4 439.6 50 412 50zm-40.1 157.1c3.6 79.1-55.4 167.2-159.8 167.2-31.7 0-61.3-9.3-86.2-25.3 29.8 3.5 59.6-4.8 83.2-23.3-24.6-0.5-45.4-16.7-52.5-39 8.8 1.7 17.5 1.2 25.4-1-27-5.4-45.7-29.8-45.1-55.8 7.6 4.2 16.2 6.7 25.5 7-25-16.7-32.1-49.8-17.4-75 27.7 34 69.1 56.4 115.9 58.7-8.2-35.2 18.5-69 54.8-69 16.2 0 30.8 6.8 41 17.8 12.8-2.5 24.8-7.2 35.7-13.6-4.2 13.1-13.1 24.1-24.7 31.1 11.4-1.4 22.2-4.4 32.3-8.9-7.5 11.3-17.1 21.2-28 29.1z" id="twitter-3-icon" fill="#00acee"/></svg>